PathFileType	4	(X/Y/Z)	19_2_55_p0_0-288.trc
DataRate	CameraRate	NumFrames	NumMarkers	Units	OrigDataRate	OrigDataStartFrame	OrigNumFrames
60.0	60.0	5	27	m	60.0	72	289
Frame#	Time	RHip			RKnee			RAnkle			RBigToe			RSmallToe			RHeel			LHip			LKnee			LAnkle			LBigToe			LSmallToe			LHeel			Neck			Head			Nose			RShoulder			RElbow			RWrist			RThumb			RIndex			RPinky			LShoulder			LElbow			LWrist			LThumb			LIndex			LPinky			
		X1	Y1	Z1	X2	Y2	Z2	X3	Y3	Z3	X4	Y4	Z4	X5	Y5	Z5	X6	Y6	Z6	X7	Y7	Z7	X8	Y8	Z8	X9	Y9	Z9	X10	Y10	Z10	X11	Y11	Z11	X12	Y12	Z12	X13	Y13	Z13	X14	Y14	Z14	X15	Y15	Z15	X16	Y16	Z16	X17	Y17	Z17	X18	Y18	Z18	X19	Y19	Z19	X20	Y20	Z20	X21	Y21	Z21	X22	Y22	Z22	X23	Y23	Z23	X24	Y24	Z24	X25	Y25	Z25	X26	Y26	Z26	X27	Y27	Z27	
72	1.2	0.3082402963741217	0.5521188593784903	0.8876055899563394	0.28920005032678614	0.5304053385731907	1.2972479466250175	0.2957388008569582	0.5758862633737871	1.7253288419911106	0.27964360471864863	0.3987720561914521	1.7428998594716674	0.3485733630697878	0.41256305806926846	1.7334442189168133	0.26077127543454176	0.6557839264918418	1.7949737549097537	0.0985111961637088	0.6239696322827567	0.9034546451919655	0.10518411488973375	0.5259757044941874	1.2902582243606515	0.08659514032787971	0.5499736781145624	1.7084697909091733	0.10796886542485572	0.3339310433898616	1.7113258912819493	0.047233415829942386	0.39287777466488305	1.7375059868989062	0.09898401781931326	0.6217991919322979	1.8006453908212057	0.14136099342719674	0.533315538495057	0.31192557093708323	0.14724621061831855	0.44666737435440557	0.05287088320115118	0.15166847927512245	0.3821256326331531	0.18751121332393614	0.30866650336476986	0.4519532411374442	0.38038518308806707	0.3972500742705369	0.5105662896395775	0.5975137973190884	0.29670774400199174	0.3692013913469807	0.7345096666787919	0.1945404483383882	0.33486051469471195	0.7958426336612102	0.21033099551937984	0.31453952592944756	0.8039870768378705	0.26202244865424706	0.3014010707400062	0.8131048356618943	0.026302718973289747	0.6169091126013074	0.38223671251245966	0.005537914048972781	0.674737363316303	0.5742461933439481	0.010509364662009104	0.5249484754159723	0.6460972946265209	0.04451341989180325	0.4496380193031762	0.7006693061160331	0.013586391173490508	0.4248542460778512	0.7042432440011908	0.007243716596005672	0.4610018798745933	0.7332513220018424
73	1.2166666666666666	0.31257960211353575	0.5368814724425933	0.8777292151497432	0.28990636603010295	0.5312321623721736	1.3018820328410134	0.295740425731041	0.5757746972892708	1.7254070928056746	0.2772902144122846	0.3872243652235921	1.7356368796848232	0.34815053399219437	0.4103482856345895	1.7421579300090997	0.2597695606716419	0.6558676027290539	1.8005667848231193	0.09185376492373053	0.6063375479375145	0.8936109593727682	0.10518679861117407	0.5253767288788309	1.290011364751037	0.085500769851457	0.5498508813972897	1.7136791985618371	0.10350881862321686	0.3315245446498663	1.710388367346422	0.043009061772536245	0.3914482709289967	1.7371062610788415	0.10126859288116974	0.6356233582512489	1.8097049213012977	0.13930776109847307	0.5214827931204673	0.3103373237681889	0.1474723501400822	0.4463931426652755	0.05664607148563052	0.15175505921162688	0.3822348185109316	0.18769455594614515	0.30108193665889676	0.4519158075497271	0.38436093653747994	0.4044780819334667	0.5087564446447094	0.5965577542520767	0.29653362594298116	0.3692023642047399	0.7343019447468425	0.19992120482201406	0.3232792356240673	0.7913148133398623	0.22114775748428012	0.29119517403830636	0.7954017152852195	0.2618987815506168	0.3025413761585392	0.8081305220084274	0.020456495080248983	0.6321766763611492	0.38852403120935786	0.001061673508272672	0.7020944789729708	0.5773575411276308	0.007770011032111333	0.5417706200852099	0.6464076374375542	0.04085535106767531	0.44690999405409404	0.6992341472421979	0.012101895777786299	0.42559947285811733	0.6999954445022398	0.006676333050970765	0.463325398120862	0.7237586485776364
74	1.2333333333333334	0.31287412083764055	0.5377941897308725	0.8860319261399003	0.29005016980785187	0.5314180816622128	1.3024343213383047	0.29578399535646493	0.5761210961333458	1.7256429322831897	0.2797591662284616	0.39880536632562946	1.7438109341846006	0.3480429671896771	0.4100175938750757	1.7423885936477344	0.2600385362806388	0.6569599585678975	1.8014795271433262	0.09228640029924108	0.6075150777967326	0.8983491731534813	0.10505749784641018	0.5254695155386289	1.2905151127393764	0.08444358557110995	0.549656423226899	1.7188420558834583	0.10733191588381762	0.33267332868557364	1.7060284475387777	0.04725127004147741	0.393009536986324	1.7374235259568815	0.10564776160189839	0.6396458727941627	1.8115559792480294	0.13744128686902463	0.5101108322373561	0.3122393957898411	0.1522254019695554	0.4353300371565679	0.058357344955301475	0.1540538623296011	0.39249611414315855	0.19211335829802684	0.2945546143779687	0.43874934125495707	0.38225006339967443	0.4035207680593061	0.5092920792550052	0.5919032475128028	0.2917177665588875	0.36739927711586695	0.7261101476080948	0.20439759064933344	0.3124470718952664	0.7791182684369967	0.2249429547568035	0.27676048313637003	0.7783520605553969	0.2618701772005294	0.301931003257266	0.7988857140701687	0.024597152417028974	0.636614225321818	0.3930086015390275	0.011310702839644032	0.6931962769998417	0.5787104881508408	0.003734486055090966	0.5711117018623679	0.650432298769693	0.03566612041115928	0.458781783381781	0.7034758024562472	0.012441499101819395	0.42505207966668707	0.7034014794629556	0.005966714534448691	0.4642811052289719	0.7203677268451539
75	1.25	0.3188614680346722	0.5225240427442547	0.8811014971054347	0.29396264814341977	0.5322255268094043	1.3118752970476222	0.29571711681423735	0.5760773525185672	1.7257135105547123	0.2796426158684604	0.39870474400819955	1.7430860140291322	0.3480628557172511	0.4107022369012264	1.7424282714349373	0.25995104825592885	0.6562196394409984	1.8009476525701855	0.10078897164304561	0.5841755028152089	0.8943329926500888	0.10421409711499079	0.5254343272846682	1.2946911465016542	0.08452184218178327	0.5493281553729519	1.718817381518386	0.10726397669763042	0.3326721231411727	1.705945990447426	0.04721359011543007	0.39300529874894025	1.7373571032799575	0.10349068909176415	0.6254794437595704	1.8029440489047692	0.1375179083028404	0.5089743029407394	0.31921204352236415	0.15226880662895295	0.43580667471925094	0.06223539636765061	0.15427398234892578	0.39203810057342786	0.1955579405281885	0.2985959460450299	0.4404958844710281	0.38219357429393885	0.40869200936544836	0.49636327544461634	0.5787017744043332	0.2871718940962796	0.3637971735953797	0.7243356417905146	0.20997667430855824	0.2999294427465998	0.7709229102366076	0.22384599208751257	0.2760546639433633	0.7703161028446975	0.2590719466780837	0.29100142567536047	0.7913100741709302	0.02473126136534333	0.6370146003078819	0.39409114248992205	0.011593790964467388	0.6933602874789386	0.5779808370025658	0.005749046121130337	0.5837623790810941	0.6576481807482844	0.03968113603376079	0.46141088285613435	0.7042763528119792	0.01876236029674371	0.4397402350450068	0.7079239953734295	0.0069558407937405356	0.46479354309676935	0.7213934875039094
76	1.2666666666666666	0.3191826267208177	0.5223839145041237	0.8814072581829876	0.29108094323672673	0.5197827936926502	1.3057984573434254	0.2957574321241672	0.5760814999840895	1.7257310551716516	0.2796908545013797	0.39895506394078445	1.7435887708981823	0.3481126114185868	0.4104998342581556	1.7423906130192794	0.2599173034428816	0.6564597177751904	1.8010746510146747	0.10158099765655398	0.5847252377790432	0.8988961490577843	0.10636334133873883	0.5097649526413073	1.2869990087878718	0.08417878818598504	0.5507122271677118	1.7297627964229778	0.1079968127572833	0.3336074988922007	1.711130276655894	0.047330237950264885	0.3927302894808924	1.7371750376956931	0.10574885785727509	0.6395428764491089	1.8114267867066056	0.1374267946272653	0.50900615199642	0.3194817403283293	0.15244070726196554	0.4351431586988544	0.06603775950051367	0.1546105291680495	0.3913109430752612	0.1988205565087087	0.2985924916369695	0.44063828355131224	0.38225388198472776	0.40905484108786494	0.4947544735717523	0.5782935982795642	0.28289761441692174	0.3510738618148008	0.7014384122297683	0.21144076829097977	0.2729663263928515	0.7510793656971139	0.2120370937539141	0.27610482259832275	0.7554109573108586	0.2558042198946712	0.2871855487680654	0.7635679230098726	0.02485887221060974	0.6364135667407383	0.39748782913884856	0.014469526377036851	0.7073019538741352	0.5790885929321725	0.006382331633082332	0.5827988353293752	0.6662897306106017	0.040896634364950384	0.47364009529887574	0.7123981235757467	0.020045524509056195	0.4399772415480335	0.7193571401851576	0.021133895212574274	0.4707408393234334	0.7397998092643966
